Space 1999 - Spazio 1999 The Movie - Attacco Alieno - Alien Attack (1979)


Regia: Charles Crichton, Lee H. Katzin
Scritto da: George Bellak, Christopher Penfold
Durata: 104 Minuti
Genere: Fantascienza
Anno: 1979
Sceneggiatori: Gerry Anderson (creatore), Sylvia Anderson (creatore)


Cast

Martin Landau, Barbara Bain, Barry Morse, Nick Tate, Ziena Merton, Prentis Hancoc


Storyline

Dopo l'uscita dalla sua orbita, il 13 settembre 1999, la luna con la base Alpha inizia una folle corsa attraverso la profondità dello spazio mentre l'International Lunar Commission discute

sul da farsi.....

Earth's Moon is the site of Moonbase Alpha, a scientific research colony nestled in the crater Plato. Staffed by over 300 men and women from Earth, it is the operations center for several

space expeditions. It is also a watchdog for vast amounts of atomic waste from Earth stored in silos on the Moon's far side. Magnetic radiation builds up and causes the wastes to explode

with such force that the Earth's centripetal pull on the Moon is overcome, and the Moon is broken free of Earth's orbit to drift at incredible speed out of the Solar System off the plane of

the ecliptic.......

General
Complete name : Spazio 1999 The Movie - Attacco Alieno - Alien Attack (1979).avi
Format : AVI
Format/Info : Audio Video Interleave
File size : 1.56 GiB
Duration : 1h 49mn
Overall bit rate : 2 039 Kbps
Writing application : FairUse Wizard
Writing library : The best and REALLY easy backup tool

Video
ID : 0
Format : MPEG-4 Visual
Format profile : Advanced Simple@L5
Format settings, BVOP : Yes
Format settings, QPel : No
Format settings, GMC : No warppoints
Format settings, Matrix : Default (H.263)
Muxing mode : Packed bitstream
Codec ID : XVID
Codec ID/Hint : XviD
Duration : 1h 49mn
Bit rate : 1 385 Kbps
Width : 640 pixels
Height : 464 pixels
Display aspect ratio : 1.379
Frame rate : 25.000 fps
Color space : YUV
Chroma subsampling : 4:2:0
Bit depth : 8 bits
Scan type : Progressive
Bits/(Pixel*Frame) : 0.187
Stream size : 1.06 GiB (68%)
Writing library : XviD 1.2.0.dev47 (UTC 2006-11-01)

Audio #1
ID : 1
Format : AC-3
Format/Info : Audio Coding 3
Mode extension : CM (complete main)
Codec ID : 2000
Duration : 1h 49mn
Bit rate mode : Constant
Bit rate : 448 Kbps
Channel(s) : 6 channels
Channel positions : Front: L C R, Side: L R, LFE
Sampling rate : 48.0 KHz
Bit depth : 16 bits
Stream size : 350 MiB (22%)
Alignment : Split accross interleaves
Interleave, duration : 40 ms (1.00 video frame)
Interleave, preload duration : 500 ms

Audio #2
ID : 2
Format : AC-3
Format/Info : Audio Coding 3
Mode extension : CM (complete main)
Codec ID : 2000
Duration : 1h 49mn
Bit rate mode : Constant
Bit rate : 192 Kbps
Channel(s) : 2 channels
Channel positions : Front: L R
Sampling rate : 48.0 KHz
Bit depth : 16 bits
Stream size : 150 MiB (9%)
Alignment : Split accross interleaves
Interleave, duration : 40 ms (1.00 video frame)
Interleave, preload duration : 500 ms